<?xml version="1.0"?>
<svg width="1800" height="1135"
     xmlns="http://www.w3.org/2000/svg"
     shape-rendering="crispEdges">
<polygon points="825,578 863,446 755,441" style="fill:rgb(127,183,189)"/>
<polygon points="863,446 744,380 755,441" style="fill:rgb(117,179,187)"/>
<polygon points="863,446 846,338 744,380" style="fill:rgb(105,175,187)"/>
<polygon points="825,578 994,522 863,446" style="fill:rgb(127,187,192)"/>
<polygon points="863,446 944,348 846,338" style="fill:rgb(93,175,188)"/>
<polygon points="1011,425 944,348 863,446" style="fill:rgb(102,177,190)"/>
<polygon points="994,522 1011,425 863,446" style="fill:rgb(119,183,191)"/>
<polygon points="865,73 735,264 846,338" style="fill:rgb(82,165,184)"/>
<polygon points="846,338 735,264 744,380" style="fill:rgb(99,171,184)"/>
<polygon points="526,555 755,441 519,434" style="fill:rgb(126,182,186)"/>
<polygon points="526,555 825,578 755,441" style="fill:rgb(133,185,188)"/>
<polygon points="549,651 693,748 825,578" style="fill:rgb(143,191,188)"/>
<polygon points="825,578 1073,677 994,522" style="fill:rgb(135,190,193)"/>
<polygon points="519,434 755,441 744,380" style="fill:rgb(118,179,185)"/>
<polygon points="661,800 703,770 693,748" style="fill:rgb(215,221,215)"/>
<polygon points="693,748 799,799 825,578" style="fill:rgb(145,191,186)"/>
<polygon points="503,386 519,434 744,380" style="fill:rgb(113,176,184)"/>
<polygon points="526,555 549,651 825,578" style="fill:rgb(140,188,188)"/>
<polygon points="703,770 799,799 693,748" style="fill:rgb(149,190,183)"/>
<polygon points="799,799 878,797 825,578" style="fill:rgb(147,192,188)"/>
<polygon points="799,799 847,816 878,797" style="fill:rgb(174,196,195)"/>
<polygon points="764,830 847,816 799,799" style="fill:rgb(219,217,218)"/>
<polygon points="878,797 1073,677 825,578" style="fill:rgb(143,194,191)"/>
<polygon points="1279,399 1147,315 1011,425" style="fill:rgb(114,177,188)"/>
<polygon points="735,264 503,386 744,380" style="fill:rgb(100,171,183)"/>
<polygon points="519,434 259,536 526,555" style="fill:rgb(120,180,183)"/>
<polygon points="847,816 882,818 878,797" style="fill:rgb(234,230,227)"/>
<polygon points="878,797 999,793 1073,677" style="fill:rgb(146,192,187)"/>
<polygon points="675,839 764,830 703,770" style="fill:rgb(222,221,218)"/>
<polygon points="703,770 764,830 799,799" style="fill:rgb(152,188,182)"/>
<polygon points="847,816 894,849 882,818" style="fill:rgb(230,227,226)"/>
<polygon points="549,651 661,800 693,748" style="fill:rgb(147,191,183)"/>
<polygon points="1111,244 991,219 944,348" style="fill:rgb(86,167,184)"/>
<polygon points="944,348 991,219 846,338" style="fill:rgb(72,169,185)"/>
<polygon points="1147,315 944,348 1011,425" style="fill:rgb(108,175,187)"/>
<polygon points="882,818 999,793 878,797" style="fill:rgb(158,194,193)"/>
<polygon points="712,87 687,172 865,73" style="fill:rgb(78,159,186)"/>
<polygon points="735,264 477,239 503,386" style="fill:rgb(94,168,180)"/>
<polygon points="999,793 1020,787 1073,677" style="fill:rgb(153,193,187)"/>
<polygon points="814,907 894,849 847,816" style="fill:rgb(211,211,215)"/>
<polygon points="882,818 926,857 999,793" style="fill:rgb(196,205,210)"/>
<polygon points="999,793 1026,798 1020,787" style="fill:rgb(173,190,198)"/>
<polygon points="611,841 675,839 661,800" style="fill:rgb(235,229,221)"/>
<polygon points="661,800 675,839 703,770" style="fill:rgb(238,231,222)"/>
<polygon points="764,830 772,884 847,816" style="fill:rgb(220,217,219)"/>
<polygon points="1025,851 1026,798 999,793" style="fill:rgb(194,201,211)"/>
<polygon points="1020,787 1084,761 1073,677" style="fill:rgb(146,192,185)"/>
<polygon points="894,849 926,857 882,818" style="fill:rgb(215,215,220)"/>
<polygon points="907,903 926,857 894,849" style="fill:rgb(198,203,212)"/>
<polygon points="1084,773 1084,761 1020,787" style="fill:rgb(163,188,181)"/>
<polygon points="736,907 772,884 764,830" style="fill:rgb(231,224,222)"/>
<polygon points="1289,487 994,522 1288,593" style="fill:rgb(133,186,191)"/>
<polygon points="1289,487 1011,425 994,522" style="fill:rgb(129,183,189)"/>
<polygon points="1026,798 1084,773 1020,787" style="fill:rgb(226,228,224)"/>
<polygon points="1288,593 994,522 1073,677" style="fill:rgb(138,189,194)"/>
<polygon points="1091,858 1084,773 1026,798" style="fill:rgb(235,232,230)"/>
<polygon points="549,651 611,841 661,800" style="fill:rgb(145,190,182)"/>
<polygon points="675,839 736,907 764,830" style="fill:rgb(239,230,225)"/>
<polygon points="1147,315 1111,244 944,348" style="fill:rgb(96,170,186)"/>
<polygon points="791,938 814,907 772,884" style="fill:rgb(169,182,201)"/>
<polygon points="772,884 814,907 847,816" style="fill:rgb(222,219,220)"/>
<polygon points="624,888 736,907 675,839" style="fill:rgb(149,170,192)"/>
<polygon points="991,929 1025,851 926,857" style="fill:rgb(214,212,215)"/>
<polygon points="926,857 1025,851 999,793" style="fill:rgb(226,221,222)"/>
<polygon points="814,907 907,903 894,849" style="fill:rgb(188,197,209)"/>
<polygon points="687,172 477,239 735,264" style="fill:rgb(85,162,181)"/>
<polygon points="466,840 549,651 230,714" style="fill:rgb(150,192,185)"/>
<polygon points="865,73 846,338 991,219" style="fill:rgb(73,164,184)"/>
<polygon points="865,73 687,172 735,264" style="fill:rgb(83,161,185)"/>
<polygon points="687,172 468,192 477,239" style="fill:rgb(76,160,179)"/>
<polygon points="582,875 624,888 611,841" style="fill:rgb(230,226,219)"/>
<polygon points="611,841 624,888 675,839" style="fill:rgb(236,228,220)"/>
<polygon points="1022,73 865,73 991,219" style="fill:rgb(79,161,187)"/>
<polygon points="1017,930 1049,861 1025,851" style="fill:rgb(178,188,200)"/>
<polygon points="1025,851 1049,861 1026,798" style="fill:rgb(204,207,213)"/>
<polygon points="536,892 582,875 466,840" style="fill:rgb(146,182,181)"/>
<polygon points="582,875 611,841 466,840" style="fill:rgb(147,186,179)"/>
<polygon points="739,940 791,938 736,907" style="fill:rgb(181,188,199)"/>
<polygon points="736,907 791,938 772,884" style="fill:rgb(167,180,197)"/>
<polygon points="814,907 838,938 907,903" style="fill:rgb(176,187,203)"/>
<polygon points="907,903 991,929 926,857" style="fill:rgb(215,213,217)"/>
<polygon points="791,938 838,938 814,907" style="fill:rgb(171,180,194)"/>
<polygon points="636,950 739,940 736,907" style="fill:rgb(183,189,198)"/>
<polygon points="791,938 832,1042 838,938" style="fill:rgb(95,88,77)"/>
<polygon points="739,943 739,940 636,950" style="fill:rgb(118,123,119)"/>
<polygon points="838,938 915,934 907,903" style="fill:rgb(185,193,205)"/>
<polygon points="636,950 736,907 624,888" style="fill:rgb(166,179,195)"/>
<polygon points="739,940 739,943 791,938" style="fill:rgb(123,126,124)"/>
<polygon points="1017,930 1091,858 1049,861" style="fill:rgb(178,190,205)"/>
<polygon points="1049,861 1091,858 1026,798" style="fill:rgb(174,187,205)"/>
<polygon points="1288,593 1073,677 1241,763" style="fill:rgb(146,192,192)"/>
<polygon points="712,87 468,192 687,172" style="fill:rgb(74,157,183)"/>
<polygon points="549,651 526,555 267,583" style="fill:rgb(141,189,188)"/>
<polygon points="838,938 923,947 915,934" style="fill:rgb(130,148,166)"/>
<polygon points="915,934 991,929 907,903" style="fill:rgb(189,196,207)"/>
<polygon points="904,1045 923,947 838,938" style="fill:rgb(92,84,74)"/>
<polygon points="923,947 991,929 915,934" style="fill:rgb(112,140,170)"/>
<polygon points="865,73 789,33 712,87" style="fill:rgb(68,156,185)"/>
<polygon points="712,87 418,81 468,192" style="fill:rgb(69,155,183)"/>
<polygon points="466,840 611,841 549,651" style="fill:rgb(147,190,183)"/>
<polygon points="583,932 636,950 624,888" style="fill:rgb(170,181,194)"/>
<polygon points="519,434 503,386 272,423" style="fill:rgb(111,174,182)"/>
<polygon points="1015,941 1017,930 991,929" style="fill:rgb(119,146,173)"/>
<polygon points="991,929 1017,930 1025,851" style="fill:rgb(192,197,208)"/>
<polygon points="1111,244 1022,73 991,219" style="fill:rgb(80,163,186)"/>
<polygon points="865,73 980,34 789,33" style="fill:rgb(74,157,186)"/>
<polygon points="583,932 624,888 582,875" style="fill:rgb(167,180,195)"/>
<polygon points="739,943 778,1043 791,938" style="fill:rgb(96,90,79)"/>
<polygon points="296,363 503,386 477,239" style="fill:rgb(91,167,178)"/>
<polygon points="1073,677 1084,761 1241,763" style="fill:rgb(151,192,187)"/>
<polygon points="1147,315 1319,152 1111,244" style="fill:rgb(95,168,187)"/>
<polygon points="1111,244 1105,66 1022,73" style="fill:rgb(83,161,189)"/>
<polygon points="1289,487 1279,399 1011,425" style="fill:rgb(123,181,189)"/>
<polygon points="528,925 583,932 536,892" style="fill:rgb(133,158,179)"/>
<polygon points="536,892 583,932 582,875" style="fill:rgb(135,163,188)"/>
<polygon points="1170,930 1166,886 1091,858" style="fill:rgb(169,185,206)"/>
<polygon points="923,947 1015,941 991,929" style="fill:rgb(130,150,170)"/>
<polygon points="1241,763 1084,761 1084,773" style="fill:rgb(193,208,204)"/>
<polygon points="1022,73 980,34 865,73" style="fill:rgb(74,158,187)"/>
<polygon points="504,921 528,925 536,892" style="fill:rgb(174,186,198)"/>
<polygon points="583,932 557,954 636,950" style="fill:rgb(178,185,192)"/>
<polygon points="1166,886 1084,773 1091,858" style="fill:rgb(228,226,228)"/>
<polygon points="1183,881 1241,763 1084,773" style="fill:rgb(229,228,228)"/>
<polygon points="1065,0 688,0 789,33" style="fill:rgb(66,151,179)"/>
<polygon points="789,33 688,0 712,87" style="fill:rgb(60,153,184)"/>
<polygon points="528,925 557,954 583,932" style="fill:rgb(173,181,194)"/>
<polygon points="636,950 742,1037 739,943" style="fill:rgb(93,88,78)"/>
<polygon points="466,840 504,921 536,892" style="fill:rgb(183,195,198)"/>
<polygon points="528,925 476,942 557,954" style="fill:rgb(175,183,194)"/>
<polygon points="1170,930 1091,858 1017,930" style="fill:rgb(180,192,207)"/>
<polygon points="1022,73 1065,0 980,34" style="fill:rgb(61,155,187)"/>
<polygon points="1319,152 1105,66 1111,244" style="fill:rgb(87,162,189)"/>
<polygon points="230,225 296,363 477,239" style="fill:rgb(86,161,176)"/>
<polygon points="1260,799 1261,773 1241,763" style="fill:rgb(223,226,223)"/>
<polygon points="1241,763 1343,728 1288,593" style="fill:rgb(144,191,189)"/>
<polygon points="1170,930 1183,881 1166,886" style="fill:rgb(161,178,199)"/>
<polygon points="1166,886 1183,881 1084,773" style="fill:rgb(225,225,227)"/>
<polygon points="739,1048 742,1037 621,1045" style="fill:rgb(155,166,168)"/>
<polygon points="923,947 904,1045 1015,941" style="fill:rgb(93,85,75)"/>
<polygon points="296,363 272,423 503,386" style="fill:rgb(102,170,179)"/>
<polygon points="778,1043 832,1042 791,938" style="fill:rgb(97,94,85)"/>
<polygon points="1015,941 1170,930 1017,930" style="fill:rgb(133,149,164)"/>
<polygon points="742,1037 778,1043 739,943" style="fill:rgb(95,91,83)"/>
<polygon points="1183,881 1260,799 1241,763" style="fill:rgb(228,227,228)"/>
<polygon points="1261,773 1343,728 1241,763" style="fill:rgb(149,189,184)"/>
<polygon points="259,536 267,583 526,555" style="fill:rgb(127,184,186)"/>
<polygon points="413,913 476,942 504,921" style="fill:rgb(132,157,183)"/>
<polygon points="272,423 259,536 519,434" style="fill:rgb(116,177,180)"/>
<polygon points="504,921 476,942 528,925" style="fill:rgb(140,162,186)"/>
<polygon points="617,1036 742,1037 636,950" style="fill:rgb(93,91,83)"/>
<polygon points="413,913 504,921 466,840" style="fill:rgb(200,204,208)"/>
<polygon points="617,1036 636,950 557,954" style="fill:rgb(96,95,86)"/>
<polygon points="742,1037 739,1048 778,1043" style="fill:rgb(152,157,158)"/>
<polygon points="778,1043 783,1058 832,1042" style="fill:rgb(143,155,157)"/>
<polygon points="901,1060 904,1045 832,1042" style="fill:rgb(134,143,146)"/>
<polygon points="832,1042 904,1045 838,938" style="fill:rgb(94,91,80)"/>
<polygon points="739,1048 783,1058 778,1043" style="fill:rgb(145,159,159)"/>
<polygon points="1171,934 1170,930 1015,941" style="fill:rgb(124,133,132)"/>
<polygon points="1256,905 1290,815 1260,799" style="fill:rgb(170,186,206)"/>
<polygon points="1290,815 1298,777 1260,799" style="fill:rgb(187,200,214)"/>
<polygon points="1260,799 1298,777 1261,773" style="fill:rgb(237,235,228)"/>
<polygon points="1288,593 1521,545 1289,487" style="fill:rgb(130,185,189)"/>
<polygon points="1105,66 1065,0 1022,73" style="fill:rgb(74,158,188)"/>
<polygon points="980,34 1065,0 789,33" style="fill:rgb(66,154,184)"/>
<polygon points="783,1058 825,1065 832,1042" style="fill:rgb(129,146,148)"/>
<polygon points="1066,1053 1171,934 1015,941" style="fill:rgb(96,87,75)"/>
<polygon points="1170,930 1215,929 1183,881" style="fill:rgb(170,184,200)"/>
<polygon points="874,1084 901,1060 832,1042" style="fill:rgb(131,147,150)"/>
<polygon points="904,1045 1066,1053 1015,941" style="fill:rgb(92,83,72)"/>
<polygon points="569,1035 617,1036 557,954" style="fill:rgb(90,89,85)"/>
<polygon points="739,1048 731,1068 783,1058" style="fill:rgb(86,95,92)"/>
<polygon points="783,1058 809,1077 825,1065" style="fill:rgb(73,78,79)"/>
<polygon points="385,897 413,913 466,840" style="fill:rgb(209,209,210)"/>
<polygon points="608,1074 621,1045 617,1036" style="fill:rgb(120,135,138)"/>
<polygon points="621,1045 731,1068 739,1048" style="fill:rgb(79,90,90)"/>
<polygon points="688,0 418,81 712,87" style="fill:rgb(52,151,183)"/>
<polygon points="468,192 230,225 477,239" style="fill:rgb(75,158,178)"/>
<polygon points="466,974 557,954 476,942" style="fill:rgb(183,190,198)"/>
<polygon points="617,1036 621,1045 742,1037" style="fill:rgb(148,155,158)"/>
<polygon points="727,1093 809,1077 783,1058" style="fill:rgb(70,78,76)"/>
<polygon points="825,1065 874,1084 832,1042" style="fill:rgb(130,147,150)"/>
<polygon points="1256,905 1260,799 1183,881" style="fill:rgb(170,186,207)"/>
<polygon points="230,714 385,897 466,840" style="fill:rgb(153,190,183)"/>
<polygon points="405,963 466,974 476,942" style="fill:rgb(165,178,194)"/>
<polygon points="405,930 476,942 413,913" style="fill:rgb(133,158,186)"/>
<polygon points="1324,808 1343,728 1298,777" style="fill:rgb(238,236,229)"/>
<polygon points="1298,777 1343,728 1261,773" style="fill:rgb(155,188,182)"/>
<polygon points="1511,280 1354,281 1575,456" style="fill:rgb(111,171,187)"/>
<polygon points="466,974 569,1035 557,954" style="fill:rgb(91,93,87)"/>
<polygon points="710,1095 727,1093 731,1068" style="fill:rgb(72,81,82)"/>
<polygon points="845,1090 874,1084 825,1065" style="fill:rgb(127,145,147)"/>
<polygon points="1178,1043 1215,929 1171,934" style="fill:rgb(94,86,75)"/>
<polygon points="385,897 405,930 413,913" style="fill:rgb(135,161,186)"/>
<polygon points="726,1115 845,1090 809,1077" style="fill:rgb(124,147,154)"/>
<polygon points="809,1077 845,1090 825,1065" style="fill:rgb(120,138,146)"/>
<polygon points="1575,456 1279,399 1289,487" style="fill:rgb(118,178,188)"/>
<polygon points="1279,399 1354,281 1147,315" style="fill:rgb(110,174,189)"/>
<polygon points="1105,66 1403,60 1065,0" style="fill:rgb(72,157,188)"/>
<polygon points="1066,1053 904,1045 1060,1070" style="fill:rgb(126,135,121)"/>
<polygon points="1171,934 1215,929 1170,930" style="fill:rgb(104,116,112)"/>
<polygon points="845,1090 851,1092 874,1084" style="fill:rgb(77,83,79)"/>
<polygon points="726,1115 851,1092 845,1090" style="fill:rgb(92,103,102)"/>
<polygon points="710,1095 731,1068 621,1045" style="fill:rgb(126,143,149)"/>
<polygon points="731,1068 727,1093 783,1058" style="fill:rgb(69,78,76)"/>
<polygon points="709,1099 710,1095 608,1074" style="fill:rgb(82,89,92)"/>
<polygon points="727,1093 726,1115 809,1077" style="fill:rgb(122,142,150)"/>
<polygon points="1290,815 1324,808 1298,777" style="fill:rgb(190,199,212)"/>
<polygon points="1342,918 1324,808 1290,815" style="fill:rgb(177,190,206)"/>
<polygon points="1215,929 1256,905 1183,881" style="fill:rgb(165,181,203)"/>
<polygon points="608,1074 710,1095 621,1045" style="fill:rgb(127,146,150)"/>
<polygon points="710,1095 709,1099 727,1093" style="fill:rgb(121,135,138)"/>
<polygon points="575,1073 608,1074 569,1035" style="fill:rgb(132,153,159)"/>
<polygon points="569,1035 608,1074 617,1036" style="fill:rgb(136,153,160)"/>
<polygon points="1060,1070 904,1045 901,1060" style="fill:rgb(85,71,58)"/>
<polygon points="1215,929 1277,925 1256,905" style="fill:rgb(175,187,202)"/>
<polygon points="1060,1070 1058,1086 1062,1077" style="fill:rgb(86,66,51)"/>
<polygon points="405,930 405,963 476,942" style="fill:rgb(170,178,191)"/>
<polygon points="493,1062 575,1073 569,1035" style="fill:rgb(130,149,154)"/>
<polygon points="276,954 405,963 405,930" style="fill:rgb(166,176,189)"/>
<polygon points="401,985 405,963 293,1001" style="fill:rgb(137,158,176)"/>
<polygon points="0,650 230,714 267,583" style="fill:rgb(141,191,184)"/>
<polygon points="267,583 230,714 549,651" style="fill:rgb(144,193,186)"/>
<polygon points="0,560 267,583 259,536" style="fill:rgb(128,183,183)"/>
<polygon points="464,1033 569,1035 466,974" style="fill:rgb(87,87,85)"/>
<polygon points="716,1120 726,1115 709,1099" style="fill:rgb(121,138,143)"/>
<polygon points="716,1120 709,1099 589,1135" style="fill:rgb(128,147,154)"/>
<polygon points="709,1099 726,1115 727,1093" style="fill:rgb(123,146,153)"/>
<polygon points="1060,1070 901,1060 1058,1086" style="fill:rgb(81,63,50)"/>
<polygon points="1354,281 1319,152 1147,315" style="fill:rgb(104,171,189)"/>
<polygon points="901,1060 933,1135 1058,1086" style="fill:rgb(82,61,46)"/>
<polygon points="1165,1055 1178,1043 1171,934" style="fill:rgb(95,86,73)"/>
<polygon points="469,1112 583,1085 575,1073" style="fill:rgb(134,151,159)"/>
<polygon points="575,1073 583,1085 608,1074" style="fill:rgb(108,118,126)"/>
<polygon points="591,1107 709,1099 608,1074" style="fill:rgb(73,79,82)"/>
<polygon points="726,1115 933,1135 851,1092" style="fill:rgb(76,57,45)"/>
<polygon points="901,1060 874,1084 933,1135" style="fill:rgb(75,55,43)"/>
<polygon points="1060,1070 1062,1077 1066,1053" style="fill:rgb(114,117,102)"/>
<polygon points="405,963 401,985 466,974" style="fill:rgb(134,157,180)"/>
<polygon points="383,1030 401,985 293,1001" style="fill:rgb(90,90,87)"/>
<polygon points="401,985 464,1033 466,974" style="fill:rgb(85,85,82)"/>
<polygon points="1380,786 1343,728 1324,808" style="fill:rgb(213,215,218)"/>
<polygon points="1380,786 1392,740 1343,728" style="fill:rgb(186,199,208)"/>
<polygon points="1343,728 1484,672 1288,593" style="fill:rgb(141,190,190)"/>
<polygon points="1291,937 1277,925 1215,929" style="fill:rgb(133,154,165)"/>
<polygon points="1256,905 1342,918 1290,815" style="fill:rgb(212,213,218)"/>
<polygon points="933,1135 874,1084 851,1092" style="fill:rgb(75,55,43)"/>
<polygon points="1298,1031 1291,937 1215,929" style="fill:rgb(93,87,75)"/>
<polygon points="418,81 230,225 468,192" style="fill:rgb(69,155,179)"/>
<polygon points="112,369 124,442 272,423" style="fill:rgb(103,169,177)"/>
<polygon points="272,423 124,442 259,536" style="fill:rgb(114,174,177)"/>
<polygon points="1412,913 1380,786 1324,808" style="fill:rgb(201,207,212)"/>
<polygon points="454,1064 493,1062 464,1033" style="fill:rgb(130,151,156)"/>
<polygon points="464,1033 493,1062 569,1035" style="fill:rgb(127,148,155)"/>
<polygon points="583,1085 591,1107 608,1074" style="fill:rgb(72,80,83)"/>
<polygon points="589,1135 591,1107 469,1112" style="fill:rgb(125,142,147)"/>
<polygon points="716,1120 933,1135 726,1115" style="fill:rgb(76,54,43)"/>
<polygon points="1171,934 1066,1053 1165,1055" style="fill:rgb(92,83,72)"/>
<polygon points="1277,925 1342,918 1256,905" style="fill:rgb(171,185,202)"/>
<polygon points="1165,1055 1062,1077 1058,1086" style="fill:rgb(101,77,53)"/>
<polygon points="1165,1055 1066,1053 1062,1077" style="fill:rgb(127,135,120)"/>
<polygon points="1193,1075 1165,1055 1058,1086" style="fill:rgb(175,120,67)"/>
<polygon points="383,1030 454,1064 464,1033" style="fill:rgb(129,150,157)"/>
<polygon points="469,1112 591,1107 583,1085" style="fill:rgb(84,93,93)"/>
<polygon points="469,1112 575,1073 493,1062" style="fill:rgb(80,80,86)"/>
<polygon points="591,1107 589,1135 709,1099" style="fill:rgb(124,140,145)"/>
<polygon points="716,1120 589,1135 933,1135" style="fill:rgb(77,57,46)"/>
<polygon points="933,1135 1027,1135 1058,1086" style="fill:rgb(172,122,74)"/>
<polygon points="401,985 383,1030 464,1033" style="fill:rgb(89,89,89)"/>
<polygon points="454,1064 469,1112 493,1062" style="fill:rgb(71,71,73)"/>
<polygon points="276,954 405,930 385,897" style="fill:rgb(136,160,186)"/>
<polygon points="1334,929 1277,925 1291,937" style="fill:rgb(126,151,175)"/>
<polygon points="1334,929 1342,918 1277,925" style="fill:rgb(154,172,190)"/>
<polygon points="1334,929 1291,937 1322,1031" style="fill:rgb(93,87,76)"/>
<polygon points="1265,1058 1215,929 1178,1043" style="fill:rgb(94,87,75)"/>
<polygon points="112,369 272,423 296,363" style="fill:rgb(97,166,175)"/>
<polygon points="249,995 172,989 226,1015" style="fill:rgb(75,93,108)"/>
<polygon points="230,714 259,916 385,897" style="fill:rgb(147,189,181)"/>
<polygon points="1027,1135 1193,1075 1058,1086" style="fill:rgb(169,121,72)"/>
<polygon points="1165,1055 1193,1075 1178,1043" style="fill:rgb(171,118,66)"/>
<polygon points="389,1068 454,1064 383,1030" style="fill:rgb(129,151,159)"/>
<polygon points="389,1068 438,1091 454,1064" style="fill:rgb(84,80,94)"/>
<polygon points="259,916 276,954 385,897" style="fill:rgb(133,165,181)"/>
<polygon points="438,1091 469,1112 454,1064" style="fill:rgb(72,70,76)"/>
<polygon points="1480,849 1392,740 1380,786" style="fill:rgb(177,196,210)"/>
<polygon points="1480,849 1484,672 1392,740" style="fill:rgb(147,190,185)"/>
<polygon points="1392,740 1484,672 1343,728" style="fill:rgb(147,190,187)"/>
<polygon points="1354,281 1541,216 1319,152" style="fill:rgb(103,167,188)"/>
<polygon points="354,1068 389,1068 383,1030" style="fill:rgb(126,150,158)"/>
<polygon points="438,1091 412,1101 469,1112" style="fill:rgb(71,78,80)"/>
<polygon points="117,314 112,369 296,363" style="fill:rgb(87,163,174)"/>
<polygon points="1027,1135 1210,1086 1193,1075" style="fill:rgb(128,87,48)"/>
<polygon points="1193,1075 1265,1058 1178,1043" style="fill:rgb(161,113,64)"/>
<polygon points="230,225 117,314 296,363" style="fill:rgb(80,159,172)"/>
<polygon points="262,970 287,994 276,954" style="fill:rgb(92,122,152)"/>
<polygon points="276,954 293,1001 405,963" style="fill:rgb(101,133,163)"/>
<polygon points="1484,672 1521,545 1288,593" style="fill:rgb(136,190,189)"/>
<polygon points="287,994 293,1001 276,954" style="fill:rgb(102,123,147)"/>
<polygon points="389,1093 412,1101 389,1068" style="fill:rgb(115,137,146)"/>
<polygon points="389,1068 412,1101 438,1091" style="fill:rgb(110,129,139)"/>
<polygon points="273,1009 296,1028 293,1001" style="fill:rgb(89,88,89)"/>
<polygon points="259,916 262,970 276,954" style="fill:rgb(139,160,182)"/>
<polygon points="249,995 262,970 168,957" style="fill:rgb(80,111,141)"/>
<polygon points="1210,1086 1265,1058 1193,1075" style="fill:rgb(144,105,62)"/>
<polygon points="1404,928 1412,913 1342,918" style="fill:rgb(157,174,192)"/>
<polygon points="1342,918 1412,913 1324,808" style="fill:rgb(183,194,208)"/>
<polygon points="1265,1058 1298,1031 1215,929" style="fill:rgb(93,87,75)"/>
<polygon points="354,1068 389,1093 389,1068" style="fill:rgb(124,144,153)"/>
<polygon points="342,1069 354,1068 329,1060" style="fill:rgb(74,69,58)"/>
<polygon points="296,1028 383,1030 293,1001" style="fill:rgb(89,89,90)"/>
<polygon points="1404,928 1342,918 1334,929" style="fill:rgb(159,172,178)"/>
<polygon points="273,1009 293,1001 287,994" style="fill:rgb(137,151,160)"/>
<polygon points="354,1068 342,1069 389,1093" style="fill:rgb(80,85,83)"/>
<polygon points="329,1060 354,1068 383,1030" style="fill:rgb(121,144,150)"/>
<polygon points="1406,1016 1404,928 1334,929" style="fill:rgb(92,87,76)"/>
<polygon points="296,1028 329,1060 383,1030" style="fill:rgb(132,153,162)"/>
<polygon points="249,995 273,1009 287,994" style="fill:rgb(144,165,179)"/>
<polygon points="296,1028 230,1025 329,1060" style="fill:rgb(131,153,162)"/>
<polygon points="1575,456 1354,281 1279,399" style="fill:rgb(111,173,188)"/>
<polygon points="1265,1058 1322,1031 1298,1031" style="fill:rgb(119,133,121)"/>
<polygon points="1298,1031 1322,1031 1291,937" style="fill:rgb(91,85,75)"/>
<polygon points="1406,1016 1322,1031 1389,1064" style="fill:rgb(125,145,134)"/>
<polygon points="1546,157 1403,60 1319,152" style="fill:rgb(83,159,188)"/>
<polygon points="1319,152 1403,60 1105,66" style="fill:rgb(81,160,190)"/>
<polygon points="262,970 259,916 168,957" style="fill:rgb(136,161,182)"/>
<polygon points="262,970 249,995 287,994" style="fill:rgb(90,106,130)"/>
<polygon points="273,1009 230,1025 296,1028" style="fill:rgb(90,88,91)"/>
<polygon points="177,73 94,246 230,225" style="fill:rgb(68,152,175)"/>
<polygon points="230,225 94,246 117,314" style="fill:rgb(79,157,173)"/>
<polygon points="0,330 0,448 112,369" style="fill:rgb(96,168,181)"/>
<polygon points="1562,919 1412,913 1404,928" style="fill:rgb(151,170,184)"/>
<polygon points="1562,919 1480,849 1412,913" style="fill:rgb(173,189,203)"/>
<polygon points="1412,913 1480,849 1380,786" style="fill:rgb(179,194,208)"/>
<polygon points="1767,544 1575,456 1521,545" style="fill:rgb(125,181,184)"/>
<polygon points="418,81 177,73 230,225" style="fill:rgb(66,152,179)"/>
<polygon points="176,0 177,73 418,81" style="fill:rgb(48,149,179)"/>
<polygon points="1521,545 1575,456 1289,487" style="fill:rgb(124,181,187)"/>
<polygon points="1767,544 1521,545 1800,685" style="fill:rgb(130,184,183)"/>
<polygon points="168,957 259,916 86,880" style="fill:rgb(137,179,176)"/>
<polygon points="249,995 230,1025 273,1009" style="fill:rgb(76,91,101)"/>
<polygon points="329,1060 176,1038 342,1069" style="fill:rgb(77,72,63)"/>
<polygon points="342,1069 22,1128 389,1093" style="fill:rgb(91,100,97)"/>
<polygon points="226,1015 230,1025 249,995" style="fill:rgb(79,98,110)"/>
<polygon points="86,880 259,916 230,714" style="fill:rgb(144,188,180)"/>
<polygon points="226,1015 176,1038 230,1025" style="fill:rgb(124,140,147)"/>
<polygon points="0,560 259,536 124,442" style="fill:rgb(119,179,182)"/>
<polygon points="0,448 124,442 112,369" style="fill:rgb(105,172,183)"/>
<polygon points="1511,280 1541,216 1354,281" style="fill:rgb(103,167,186)"/>
<polygon points="1751,179 1541,216 1800,363" style="fill:rgb(94,163,181)"/>
<polygon points="1322,1031 1406,1016 1334,929" style="fill:rgb(92,86,75)"/>
<polygon points="1389,1064 1322,1031 1265,1058" style="fill:rgb(128,143,129)"/>
<polygon points="168,957 172,989 249,995" style="fill:rgb(70,106,138)"/>
<polygon points="177,73 0,207 94,246" style="fill:rgb(64,155,178)"/>
<polygon points="688,0 176,0 418,81" style="fill:rgb(45,149,180)"/>
<polygon points="0,330 117,314 94,246" style="fill:rgb(76,162,179)"/>
<polygon points="0,330 112,369 117,314" style="fill:rgb(87,166,180)"/>
<polygon points="93,1026 166,1020 172,989" style="fill:rgb(63,90,104)"/>
<polygon points="0,448 0,560 124,442" style="fill:rgb(112,175,182)"/>
<polygon points="1210,1086 1389,1064 1265,1058" style="fill:rgb(144,104,61)"/>
<polygon points="1573,942 1562,919 1404,928" style="fill:rgb(92,97,90)"/>
<polygon points="1545,1067 1389,1064 1554,1072" style="fill:rgb(103,94,72)"/>
<polygon points="0,650 86,880 230,714" style="fill:rgb(142,190,182)"/>
<polygon points="1573,46 1448,0 1403,60" style="fill:rgb(69,155,186)"/>
<polygon points="1403,60 1448,0 1065,0" style="fill:rgb(76,158,187)"/>
<polygon points="1573,46 1731,129 1636,0" style="fill:rgb(62,151,182)"/>
<polygon points="1541,216 1546,157 1319,152" style="fill:rgb(95,162,188)"/>
<polygon points="1389,1064 1413,1050 1406,1016" style="fill:rgb(124,140,128)"/>
<polygon points="0,560 0,650 267,583" style="fill:rgb(134,185,185)"/>
<polygon points="72,970 172,989 168,957" style="fill:rgb(71,108,140)"/>
<polygon points="172,989 166,1020 226,1015" style="fill:rgb(73,93,108)"/>
<polygon points="230,1025 176,1038 329,1060" style="fill:rgb(139,160,166)"/>
<polygon points="389,1093 14,1135 412,1101" style="fill:rgb(109,132,141)"/>
<polygon points="0,207 0,330 94,246" style="fill:rgb(70,160,179)"/>
<polygon points="93,1026 176,1038 166,1020" style="fill:rgb(153,171,177)"/>
<polygon points="166,1020 176,1038 226,1015" style="fill:rgb(153,171,177)"/>
<polygon points="0,904 63,923 86,880" style="fill:rgb(132,168,182)"/>
<polygon points="86,880 63,923 168,957" style="fill:rgb(118,155,181)"/>
<polygon points="0,62 0,207 177,73" style="fill:rgb(55,150,176)"/>
<polygon points="1573,942 1404,928 1406,1016" style="fill:rgb(93,87,75)"/>
<polygon points="1480,849 1632,886 1484,672" style="fill:rgb(145,191,184)"/>
<polygon points="0,947 70,964 63,923" style="fill:rgb(139,165,186)"/>
<polygon points="63,923 70,964 168,957" style="fill:rgb(138,165,186)"/>
<polygon points="70,964 72,970 168,957" style="fill:rgb(85,122,153)"/>
<polygon points="1547,1053 1573,942 1406,1016" style="fill:rgb(89,80,68)"/>
<polygon points="1562,919 1632,886 1480,849" style="fill:rgb(142,183,178)"/>
<polygon points="72,970 93,1026 172,989" style="fill:rgb(68,92,116)"/>
<polygon points="176,1038 81,1083 342,1069" style="fill:rgb(76,57,43)"/>
<polygon points="1573,46 1546,157 1731,129" style="fill:rgb(73,155,183)"/>
<polygon points="1546,157 1573,46 1403,60" style="fill:rgb(76,157,186)"/>
<polygon points="70,964 0,947 72,970" style="fill:rgb(100,133,158)"/>
<polygon points="72,970 0,1016 93,1026" style="fill:rgb(77,93,108)"/>
<polygon points="0,650 0,904 86,880" style="fill:rgb(149,190,185)"/>
<polygon points="1605,942 1632,886 1562,919" style="fill:rgb(133,158,173)"/>
<polygon points="1800,363 1541,216 1511,280" style="fill:rgb(99,164,182)"/>
<polygon points="1547,1053 1605,942 1573,942" style="fill:rgb(88,82,69)"/>
<polygon points="1573,942 1605,942 1562,919" style="fill:rgb(91,98,93)"/>
<polygon points="1547,1053 1406,1016 1413,1050" style="fill:rgb(89,87,76)"/>
<polygon points="176,0 0,62 177,73" style="fill:rgb(42,147,176)"/>
<polygon points="0,904 0,947 63,923" style="fill:rgb(124,156,182)"/>
<polygon points="1545,1067 1413,1050 1389,1064" style="fill:rgb(123,139,126)"/>
<polygon points="1545,1067 1547,1053 1413,1050" style="fill:rgb(118,130,117)"/>
<polygon points="0,1072 81,1083 93,1026" style="fill:rgb(73,56,44)"/>
<polygon points="93,1026 81,1083 176,1038" style="fill:rgb(76,60,47)"/>
<polygon points="412,1101 14,1135 469,1112" style="fill:rgb(84,90,103)"/>
<polygon points="469,1112 14,1135 589,1135" style="fill:rgb(121,145,155)"/>
<polygon points="1554,1072 1389,1064 1609,1107" style="fill:rgb(122,97,64)"/>
<polygon points="1634,1052 1632,945 1605,942" style="fill:rgb(85,79,68)"/>
<polygon points="1605,942 1632,945 1632,886" style="fill:rgb(132,154,166)"/>
<polygon points="1634,1052 1605,942 1547,1053" style="fill:rgb(85,78,66)"/>
<polygon points="1609,1107 1389,1064 1210,1086" style="fill:rgb(130,100,62)"/>
<polygon points="1545,1067 1554,1072 1547,1053" style="fill:rgb(110,109,89)"/>
<polygon points="176,0 0,0 0,62" style="fill:rgb(37,144,173)"/>
<polygon points="0,947 0,1016 72,970" style="fill:rgb(68,92,119)"/>
<polygon points="1800,685 1484,672 1632,886" style="fill:rgb(143,190,184)"/>
<polygon points="1800,685 1521,545 1484,672" style="fill:rgb(138,189,186)"/>
<polygon points="1731,129 1546,157 1751,179" style="fill:rgb(80,157,182)"/>
<polygon points="1573,46 1636,0 1448,0" style="fill:rgb(64,152,183)"/>
<polygon points="0,1016 0,1072 93,1026" style="fill:rgb(77,60,46)"/>
<polygon points="1554,1072 1634,1052 1547,1053" style="fill:rgb(86,80,67)"/>
<polygon points="1800,926 1800,685 1632,886" style="fill:rgb(141,187,182)"/>
<polygon points="1800,685 1800,456 1767,544" style="fill:rgb(122,177,179)"/>
<polygon points="1767,544 1800,456 1575,456" style="fill:rgb(118,176,181)"/>
<polygon points="1751,179 1546,157 1541,216" style="fill:rgb(90,160,184)"/>
<polygon points="1800,363 1511,280 1575,456" style="fill:rgb(106,168,183)"/>
<polygon points="1800,456 1800,363 1575,456" style="fill:rgb(108,170,181)"/>
<polygon points="0,1072 22,1128 81,1083" style="fill:rgb(68,74,69)"/>
<polygon points="81,1083 22,1128 342,1069" style="fill:rgb(78,85,80)"/>
<polygon points="1554,1072 1609,1107 1634,1052" style="fill:rgb(123,96,63)"/>
<polygon points="1672,1135 1609,1107 1210,1086" style="fill:rgb(117,74,36)"/>
<polygon points="1800,926 1632,886 1632,945" style="fill:rgb(142,162,172)"/>
<polygon points="0,1135 14,1135 22,1128" style="fill:rgb(111,134,142)"/>
<polygon points="22,1128 14,1135 389,1093" style="fill:rgb(118,132,139)"/>
<polygon points="0,1072 0,1135 22,1128" style="fill:rgb(73,74,69)"/>
<polygon points="1800,363 1800,173 1751,179" style="fill:rgb(86,159,176)"/>
<polygon points="1751,179 1800,173 1731,129" style="fill:rgb(73,154,179)"/>
<polygon points="1731,129 1786,96 1636,0" style="fill:rgb(56,148,177)"/>
<polygon points="1609,1107 1670,1112 1634,1052" style="fill:rgb(121,96,63)"/>
<polygon points="1800,940 1800,926 1632,945" style="fill:rgb(134,149,157)"/>
<polygon points="1672,1135 1670,1112 1609,1107" style="fill:rgb(111,71,35)"/>
<polygon points="1800,173 1786,96 1731,129" style="fill:rgb(63,150,176)"/>
<polygon points="1027,1135 1672,1135 1210,1086" style="fill:rgb(122,76,36)"/>
<polygon points="1800,940 1632,945 1634,1052" style="fill:rgb(80,76,66)"/>
<polygon points="1800,940 1634,1052 1800,1064" style="fill:rgb(77,70,59)"/>
<polygon points="1785,1083 1634,1052 1670,1112" style="fill:rgb(124,105,75)"/>
<polygon points="1800,173 1800,0 1786,96" style="fill:rgb(50,145,171)"/>
<polygon points="1786,96 1800,0 1636,0" style="fill:rgb(42,145,175)"/>
<polygon points="1778,1116 1785,1083 1670,1112" style="fill:rgb(113,97,70)"/>
<polygon points="1785,1083 1800,1064 1634,1052" style="fill:rgb(130,100,65)"/>
<polygon points="1672,1135 1778,1116 1670,1112" style="fill:rgb(110,73,39)"/>
<polygon points="1785,1083 1800,1135 1800,1064" style="fill:rgb(116,98,74)"/>
<polygon points="1672,1135 1800,1135 1778,1116" style="fill:rgb(110,73,40)"/>
<polygon points="1778,1116 1800,1135 1785,1083" style="fill:rgb(71,72,83)"/>
</svg>